<?xml version="1.0" encoding="UTF-8"?>
<svg id="Layer_2" data-name="Layer 2" xmlns="http://www.w3.org/2000/svg" viewBox="0 0 215.99 118.92">
  <defs>
    <style>
      .cls-1 {
        fill: #fff;
      }
    </style>
  </defs>
  <g id="Layer_1-2" data-name="Layer 1">
    <g>
      <path class="cls-1" d="M139.04,115.67h-2.98c-.29,0-.53.24-.53.53v2.19c0,.29-.24.53-.53.53h-1.23c-.29,0-.53-.24-.53-.53v-6.06c0-1.34.66-2,1.97-2h3.82c.29,0,.53.24.53.53v1.09c0,.29-.24.53-.53.53h-3.25c-.11,0-.18.02-.21.07-.03.05-.04.12-.04.21v.59c0,.1.08.19.19.19h3.32c.29,0,.53.24.53.53v1.09c0,.29-.24.53-.53.53Z"/>
      <path class="cls-1" d="M151.07,118.66l-1.2-1.49c-.21-.26-.62-.11-.62.22v.83c0,.38-.31.69-.69.69h-.91c-.38,0-.69-.31-.69-.69v-5.9c0-1.34.66-2,1.97-2h2.36c1.32,0,1.97.67,1.97,2v2.04c0,1-.36,1.62-1.08,1.87-.21.07-.27.35-.13.52l.85,1.02c.37.45.05,1.13-.53,1.13h-.77c-.21,0-.41-.09-.54-.26ZM149.25,113.95c0,.08,0,.15.03.2.02.05.08.08.17.08h1.3c.1,0,.17-.02.2-.06.03-.04.04-.11.04-.19v-1.3c0-.14-.08-.21-.25-.21h-1.28c-.09,0-.15.03-.17.08-.02.05-.03.12-.03.2v1.2Z"/>
      <path class="cls-1" d="M163.04,111.04v7.16c0,.4-.32.72-.72.72h-.85c-.4,0-.72-.32-.72-.72v-7.16c0-.4.32-.72.72-.72h.85c.4,0,.72.32.72.72Z"/>
      <path class="cls-1" d="M172.4,118.92c-.39,0-.7-.05-.95-.16-.25-.1-.45-.24-.6-.42-.15-.18-.26-.39-.32-.63s-.09-.51-.09-.79v-5.85c0-.4.32-.72.72-.72h.85c.4,0,.72.32.72.72v5.16c0,.21.05.35.15.43.1.08.22.12.36.12h2.1c.4,0,.72.32.72.72v.7c0,.4-.32.72-.72.72h-2.93Z"/>
      <path class="cls-1" d="M183.83,110.33h.68c.44,0,.8.36.8.8v5.39c0,.14.11.25.25.25h1.24c.16,0,.24-.09.24-.27v-5.37c0-.44.36-.8.8-.8h.68c.44,0,.8.36.8.8v5.78c0,.7-.16,1.2-.49,1.52-.33.32-.83.48-1.51.48h-2.34c-.69,0-1.19-.17-1.5-.51-.31-.34-.47-.84-.47-1.49v-5.78c0-.44.36-.8.8-.8Z"/>
      <path class="cls-1" d="M202.28,115.67h-2.77c-.35,0-.63.28-.63.63v1.98c0,.35-.28.63-.63.63h-1.03c-.35,0-.63-.28-.63-.63v-5.96c0-1.34.66-2,1.97-2h3.71c.35,0,.63.28.63.63v.88c0,.35-.28.63-.63.63h-3.15c-.11,0-.18.02-.21.07-.03.05-.04.12-.04.21v.6c0,.1.08.17.17.17h3.23c.35,0,.63.28.63.63v.88c0,.35-.28.63-.63.63Z"/>
      <path class="cls-1" d="M215.33,112.42h-.57c-.36,0-.65.29-.65.65v5.2c0,.36-.29.65-.65.65h-.98c-.36,0-.65-.29-.65-.65v-5.2c0-.36-.29-.65-.65-.65h-.57c-.36,0-.65-.29-.65-.65v-.91c0-.32.26-.58.58-.58h4.8c.36,0,.65.29.65.65v.84c0,.36-.29.65-.65.65Z"/>
      <path class="cls-1" d="M137.62,96.44c.67,0,1.16.16,1.49.49s.49.83.49,1.53v4.57c0,1.34-.66,2-1.97,2h-2.4c-1.32,0-1.97-.67-1.97-2v-4.57c0-.7.16-1.21.49-1.53s.82-.49,1.49-.49h2.4ZM137.31,98.88c0-.19-.08-.29-.24-.3h-1.26c-.19,0-.28.1-.28.3v3.72c0,.08,0,.15.03.2.02.05.08.08.17.08h1.33c.11,0,.18-.02.21-.07.03-.05.04-.12.04-.21v-3.72Z"/>
      <path class="cls-1" d="M149.12,102.6c0,.09.01.16.04.21.03.05.1.07.21.07h1.57c.11,0,.17-.06.17-.18v-.73c0-.1-.07-.16-.21-.16h-.49c-.4,0-.72-.32-.72-.72v-.69c0-.4.32-.72.72-.72h1.44c.31,0,.57.03.77.1.2.07.36.16.47.3.11.13.19.29.23.49.04.19.06.41.06.66v2.23c0,.27-.02.51-.06.71-.04.2-.12.36-.23.49-.11.13-.27.22-.47.29-.2.07-.45.1-.76.1h-3.05c-1.32,0-1.97-.67-1.97-2v-4.57c0-.7.16-1.21.49-1.53s.82-.49,1.49-.49h3.34c.4,0,.72.32.72.72v.71c0,.4-.32.72-.72.72h-2.75c-.19,0-.28.1-.28.3v3.72Z"/>
      <path class="cls-1" d="M90.58,101.84c-.67,0-1.16-.19-1.48-.56-.32-.38-.48-.91-.48-1.59v-1.21c0-1.35.66-2.03,1.97-2.03h3.57c.42,0,.76.34.76.76v.63c0,.42-.34.76-.76.76h-2.95c-.08,0-.15.01-.21.04-.07.03-.1.1-.1.21v.62c0,.12.03.19.1.21.07.02.14.03.21.03h1.71c.67,0,1.17.18,1.5.55.33.37.5.9.5,1.61v1.18c0,1.33-.66,1.99-1.97,1.99h-3.57c-.42,0-.76-.34-.76-.76v-.63c0-.42.34-.76.76-.76h2.92c.08,0,.15,0,.23-.03.08-.02.11-.08.11-.2v-.55c0-.1-.04-.17-.11-.21-.08-.04-.15-.06-.23-.06h-1.72Z"/>
      <path class="cls-1" d="M108.85,97.09l-2.35,3.35c-.1.14-.1.33,0,.48l2.43,3.45c.19.28,0,.65-.34.65h-1.86c-.14,0-.27-.07-.34-.18l-1.01-1.48c-.23-.34-.76-.17-.76.23v1.01c0,.23-.19.42-.42.42h-1.45c-.23,0-.42-.19-.42-.42v-7.76c0-.23.19-.42.42-.42h1.45c.23,0,.42.19.42.42v.99c0,.41.52.57.76.24l1.02-1.47c.08-.11.2-.18.34-.18h1.76c.34,0,.53.38.34.65Z"/>
      <path class="cls-1" d="M118.26,97.07v7.32c0,.35-.28.63-.63.63h-1.02c-.35,0-.63-.28-.63-.63v-7.32c0-.35.28-.63.63-.63h1.02c.35,0,.63.28.63.63Z"/>
      <g>
        <path class="cls-1" d="M79.83,62.6l-.03-.09c-1.26-4.76-5.01-8.28-7.81-12.27-2.67-3.62-4.68-7.64-6.56-11.72-2.44-5.6-5.45-11.1-6.54-17.16-.96-5.4.19-11.47-2.9-16.27-3.28-5.48-11.29-6.81-16.16-2.65-6.45,5.27-4.03,14.7-6.07,21.87-1.97,7.19-5.48,13.87-8.55,20.64-4.13,8.3-7.69,17.18-13.39,24.5-3.16,4.06-7.18,7.53-9.66,12.09-7.21,12.51,4.75,26.78,18.28,21.07,5.09-2.1,8.48-7.07,9.03-12.47.64-5.49-.75-11.23.43-16.71.79-4.1,2.51-7.95,4.28-11.71,2.57-5.28,5.35-10.86,10.59-13.74,5.1-2.99,12.93-2.37,15.84,3.29,2.35,4.42.64,9.83,1.54,14.64.62,4.31,4.24,8.02,8.69,8.16,6.19.39,10.64-5.55,8.97-11.49ZM69.48,66.47c-.79-1.05-.97-3.04-.61-4.23.54-1.93,2.02-.87,2.63.48.56,1.05.91,2.76.32,3.76l-.04.07c-.54.93-1.75.77-2.29-.07ZM44.3,38.88c-2.74-3.92-.31-12.31,3.87-14.73,3.71-1.98,6.52,2.32,7.26,5.59,1.08,3.8.18,7.95-3.5,9.85l-.09.05c-2.36,1.28-5.78,1.54-7.54-.76ZM51.9,14.05l-.02.09c-1.01,3.56-5.08,5.97-8.18,7.58-2.18,1.12-2.78-.13-2.97-2.14-.28-2.85-.08-7.42,1.24-10.49,3.67-8.48,11.33-2.06,9.93,4.96ZM56.54,38s0-.02.01-.03l.02-.02s-.02.04-.03.05ZM10.62,90.17c-.32-2.16.48-4.63,1.85-6.83,1.13-1.92,4.65-6.5,6.46-5.07.83.7,1.06,1.75,1.32,2.96.21,1.1.32,2.44.32,3.8.07,3.37-.76,7.8-3.89,9.17l-.07.03c-2.82,1.26-5.74-1.22-5.99-4.07Z"/>
        <path class="cls-1" d="M56.55,37.96l.02-.02s-.02.04-.03.05c0-.01,0-.02.01-.03Z"/>
        <path class="cls-1" d="M203.58,80.98v-.09c-.94-7.54-7.01-13.26-9.2-20.42-2.45-6.57-.96-13.89-2.94-20.41-1.38-4.39-4.81-7.31-9.73-7.73-2.57-.34-5.29-.44-7.6-1.63-4.61-2.4-6.46-8.44-10.9-11.53-7.17-5.48-17.64-4.41-21.68,3.86-2.2,4.25-2.38,9.4-4.37,13.74-1.59,3.77-4.79,6.58-7.69,9.48-4.12,3.9-5.93,9.62-1.91,14.17,2.26,2.64,5.92,4.1,8.72,6.19,7.22,4.87,2.25,14.63,7.64,20.83,4.88,5.93,13.51,4.25,20.49,4.17,4.08-.02,8.07.85,11.87,2.24,4.76,1.72,9.96,3.82,15.12,3.1,8.11-.89,13.29-8.52,12.15-15.98ZM150.25,27.44c2.27-3.43,6.76-2.31,9.14.42,2.06,2.2,2.26,5.34-.09,7.37l-.07.06c-2.16,1.77-6.67,3.52-9.34,1.93-2.79-2.12-1.28-7.33.36-9.78ZM158.13,84.93c-2.68.35-6.27-.73-8.23-2.82-1.38-1.22-3.2-5.39.19-4.86h.07c2.03.54,5.1,2.59,7.02,3.86,1.69,1.11,4.46,3.28.95,3.82ZM155.97,72.79c-3.94-3.06-7.34-6.68-9.5-10.96-2.3-4.39-3.29-10.85,1.64-13.98,3.03-1.99,7.6-2.51,11.21-3.96,3.84-1.3,7.71-4.37,11.94-3.39,4.27,1.26,6.36,5.68,8.22,9.18,2.01,4.11,3.38,8.45,2.69,12.86v.09c-.94,5.61-4.88,10.96-10.21,13.73-5.51,2.87-11.03.25-15.99-3.57ZM185.65,90.18c-2.81-.55-5.82-1.77-8.48-2.86-2.22-.97-5.45-2.37-2.92-4.76,1.53-1.56,4.96-3.86,6.97-6.03,2.33-2.3,3.9-4.84,6.09-6.27,4.7-3.27,9.1,8.3,9.21,11.41v.09c.51,6.07-4.55,9.82-10.87,8.42Z"/>
        <path class="cls-1" d="M190.79,85.37l-.07.06c-1.31,1.15-3.67,1.34-5.37.77-3.41-1.05-3.69-4.23-1.69-6.65,2.41-3.07,6.7-3.89,8.11.13.68,1.78.51,4.43-.98,5.7Z"/>
        <path class="cls-1" d="M136.35,78.36l-.04-.08c-2.34-4.77-8.21-7.04-11.73-10.81-4.28-4.35-5.56-11-4.32-16.87,2.47-12.54,13.95-16.28,14.53-24.25.26-7.72-10.43-10.56-14.82-4.62-2.51,3.29-2.45,7.87-3.29,11.81-.81,4.23-2.66,8.36-5.2,11.86-1.75,2.4-4.17,4.57-7.09,5.29-3.88,1.07-7.75-1.25-8.4-5.29-.68-3.69.21-7.73-.93-11.45-1.24-4.82-5.35-8.84-10.26-9.76-8.86-1.82-17.84,5.39-15.49,14.65,3.21,10.77,14.98,13.01,12.94,28.5-.58,4.16-2.4,7.96-4.94,11.27-1.77,2.38-3.83,4.55-5.24,7.1-5.98,10.38,7.91,18.09,14.13,8.52,2.43-4.11,1.83-9.22,2.4-14.23.3-2.8.91-5.66,2.15-8.18,1.12-2.29,2.75-4.26,5.02-5.43,4.92-2.67,13.26-.87,16.63,3.91,3.79,5.09,1.6,12.54,5.37,17.67,7.03,9.73,23.94,2.24,18.59-9.61ZM81.51,91.77l-.06.07c-1.65,2.02-4.28,1.44-4.7-.67-.45-2.67,1.7-5.76,3.51-7.37,1.72-1.43,2.91-.11,2.86,2.74-.02,1.74-.6,3.98-1.62,5.23ZM88.61,40.16c-.02,1.76-.11,3.63-.31,5.35-.58,6.29-3.67,1.93-5.71-.29-2.33-2.84-6.21-6.84-5.18-10.51,1.06-3.63,6.43-4.57,9-2l.06.06c1.77,1.63,2.22,4.79,2.14,7.39ZM130.6,83.98l-.03.08c-1.5,3.69-6.66,3.82-8.71.52-2.34-3.12-3.19-13.03,3.04-9.92,3.18,1.61,7.14,5.52,5.7,9.32Z"/>
      </g>
    </g>
  </g>
</svg>